<?xml version="1.0"?>
<svg version="1.1" xmlns="http://www.w3.org/2000/svg" width="237" height="53" style=""><path fill="#f5f5f5" d="M16.75,56.5l0-4.25l3.75-1.5l0-23.5l-3.75-1.5l0-4.25l12.9-0.25l7.5,16.65l7.85-16.4l12-0.25l0,4.5l-3.6,1.5l0,23.5l3.75,1.5l0,4.25l-14.9,0l0-4.25l3.9-1.5l0-18.8l-1.35,3.3l-5.65,11.75l-5.4,0.25l-5.75-11.85l-0.85-2.6l0,17.95l3.85,1.5l0,4.25l-14.25,0z M99.5255,52.25l0,4.25l-15.9,0l0-4.25l3.75-1.35l-1.2-3.65l-11.1,0l-1.25,3.6l3.9,1.4l0,4.25l-15.1,0l0-4.25l3.65-1.4l11-29.45l8-0.15l10.75,29.6z M84.5255,41.9l-3.75-11.85l-3.95,11.85l7.7,0z M105.251,56.5l0-4.25l3.75-1.5l0-23.5l-3.75-1.5l0-4.25l15.25-0.25l0,4.5l-3.75,1.5l0,23.5l3.75,1.5l0,4.25l-15.25,0z M127.7265,56.5l0-4.25l3.75-1.5l0-23.5l-3.75-1.5l0-4.25l12-0.25l13.5,23.1l0-17.1l-3.65-1.5l0-4.25l14.25-0.25l0,4.5l-3.75,1.5l0,29.25l-8.35,0l-13.4-22.65l0,16.9l3.9,1.5l0,4.25l-14.5,0z M205.952,52.25l0,4.25l-15.9,0l0-4.25l3.75-1.35l-1.2-3.65l-11.1,0l-1.25,3.6l3.9,1.4l0,4.25l-15.1,0l0-4.25l3.65-1.4l11-29.45l8-0.15l10.75,29.6z M190.952,41.9l-3.75-11.85l-3.95,11.85l7.7,0z"/><path fill="#" d=""/></svg>
